<?xml version="1.0" standalone="no"?>
<!DOCTYPE svg PUBLIC "-//W3C//DTD SVG 20010904//EN"
 "http://www.w3.org/TR/2001/REC-SVG-20010904/DTD/svg10.dtd">
<svg version="1.0" xmlns="http://www.w3.org/2000/svg"
 width="500.000000pt" height="500.000000pt" viewBox="0 0 500.000000 500.000000"
 preserveAspectRatio="xMidYMid meet">

<g transform="translate(0.000000,500.000000) scale(0.100000,-0.100000)"
fill="#000000" stroke="none">
<path d="M1283 3048 c-59 -57 -148 -142 -198 -189 -49 -48 -119 -114 -155
-148 -65 -60 -65 -61 -50 -88 20 -35 59 -42 85 -13 10 11 22 20 26 20 5 0 9
-142 11 -316 3 -299 4 -316 22 -330 31 -22 758 -21 780 1 24 25 28 67 24 294
-3 197 -4 214 -22 227 -16 11 -62 14 -213 14 -106 0 -193 3 -193 8 0 4 6 16
13 27 8 11 27 45 44 75 17 30 41 73 54 95 23 40 23 40 -41 -19 -207 -190 -260
-242 -260 -258 0 -16 11 -18 99 -18 101 0 131 -5 131 -21 0 -9 -38 -68 -51
-79 -17 -15 -110 -163 -105 -167 12 -12 112 61 242 177 93 83 160 110 192 78
8 -8 12 -61 12 -175 0 -150 -1 -163 -19 -173 -12 -6 -127 -10 -305 -10 -245 0
-287 2 -300 16 -14 13 -16 58 -16 332 l0 317 123 116 c67 63 139 130 160 148
l37 33 48 -43 c26 -24 130 -120 231 -214 105 -98 193 -171 206 -173 28 -4 55
30 48 59 -3 11 -31 44 -61 72 -31 29 -113 106 -182 173 -243 235 -265 253
-287 254 -15 0 -58 -34 -130 -102z"/>
<path d="M3205 3036 c-20 -30 -3 -74 32 -82 31 -8 73 20 73 50 0 53 -76 76
-105 32z"/>
<path d="M2295 3026 c-61 -28 -95 -75 -95 -131 0 -76 41 -115 163 -155 96 -31
123 -78 71 -119 -44 -35 -129 -26 -174 19 l-20 20 -30 -22 c-17 -12 -30 -25
-30 -28 0 -14 57 -60 92 -74 51 -22 154 -21 198 2 76 38 104 135 58 202 -28
39 -62 58 -163 90 -22 7 -48 19 -57 28 -23 20 -23 64 0 85 26 24 99 22 140 -3
30 -19 34 -19 57 -4 35 23 31 40 -16 71 -49 32 -145 42 -194 19z"/>
<path d="M3447 3010 c-16 -18 -28 -48 -32 -80 -6 -47 -9 -50 -36 -50 -26 0
-29 -3 -29 -35 0 -32 2 -35 30 -35 l30 0 0 -140 0 -140 45 0 45 0 0 140 0 140
50 0 50 0 0 35 0 35 -50 0 -50 0 0 33 c0 45 29 72 70 64 29 -6 30 -5 30 28 l0
35 -64 0 c-59 0 -66 -2 -89 -30z"/>
<path d="M3700 2935 l0 -55 -35 0 c-33 0 -35 -2 -35 -35 0 -33 2 -35 34 -35
l34 0 4 -121 c3 -118 4 -121 31 -145 22 -19 39 -24 80 -24 68 0 81 9 68 43 -9
22 -17 27 -44 27 -51 0 -57 13 -57 122 l0 98 50 0 50 0 0 35 0 35 -50 0 -50 0
0 55 0 55 -40 0 -40 0 0 -55z"/>
<path d="M2588 2858 c4 -13 29 -92 57 -175 l49 -153 47 0 47 0 27 88 c14 48
32 101 39 117 13 30 14 29 51 -87 l38 -118 47 0 c37 0 49 4 53 18 3 9 21 69
42 132 20 63 43 134 50 158 l13 42 -43 0 c-47 0 -48 -2 -75 -100 -7 -25 -16
-56 -20 -70 -5 -14 -11 -38 -15 -55 l-7 -30 -13 40 c-7 22 -26 79 -40 128
l-27 87 -42 0 -42 0 -33 -107 c-18 -60 -35 -115 -37 -123 -7 -19 -24 26 -55
143 l-24 87 -46 0 c-44 0 -47 -1 -41 -22z"/>
<path d="M3210 2705 l0 -175 40 0 40 0 0 175 0 175 -40 0 -40 0 0 -175z"/>
<path d="M2180 2225 l0 -215 35 0 35 0 0 95 0 96 103 -3 102 -3 3 -92 3 -93
33 0 34 0 1 215 1 215 -35 0 -35 0 0 -90 c0 -49 -3 -90 -7 -90 -5 -1 -51 -1
-103 -2 l-95 -1 -3 91 -3 92 -34 0 -35 0 0 -215z"/>
<path d="M2680 2308 c-59 -41 -75 -72 -75 -146 0 -48 6 -75 19 -94 59 -89 207
-91 268 -5 33 46 37 134 8 185 -44 78 -151 107 -220 60z m147 -70 c65 -61 22
-178 -67 -178 -111 0 -135 162 -30 203 25 10 73 -2 97 -25z"/>
<path d="M3092 2310 c-25 -24 -32 -25 -32 -5 0 10 -11 15 -35 15 l-35 0 0
-158 0 -158 35 4 35 4 0 113 0 114 29 20 c37 27 47 26 76 -4 24 -23 25 -31 25
-135 l0 -110 29 0 29 0 4 111 c3 107 4 112 31 135 34 29 47 30 81 3 25 -20 26
-23 26 -135 l0 -114 35 0 35 0 0 110 c0 123 -12 166 -53 193 -44 29 -114 19
-143 -21 -10 -13 -16 -12 -46 11 -43 33 -95 36 -126 7z"/>
<path d="M3595 2311 c-51 -30 -69 -68 -69 -142 0 -47 5 -74 19 -98 47 -80 174
-96 243 -31 l23 22 -25 19 c-25 19 -25 19 -58 -1 -56 -34 -105 -23 -132 29 -9
16 -12 31 -9 35 4 3 57 6 120 6 l113 0 0 33 c0 111 -131 186 -225 128z m130
-56 c14 -13 25 -33 25 -45 0 -18 -6 -20 -80 -20 -91 0 -98 8 -54 59 33 39 74
41 109 6z"/>
<path d="M3925 2317 c-33 -20 -44 -40 -45 -83 0 -48 16 -66 75 -84 57 -17 85
-37 85 -60 0 -41 -80 -51 -121 -14 -14 13 -20 13 -38 2 -25 -15 -26 -24 -7
-44 22 -21 63 -34 109 -34 83 0 143 67 117 130 -12 29 -54 60 -80 60 -26 0
-80 33 -80 49 0 42 57 54 100 22 24 -19 24 -19 42 1 10 12 18 23 18 24 0 2
-18 13 -40 24 -43 22 -104 25 -135 7z"/>
</g>
</svg>
